<?xml version="1.0" encoding="UTF-8" standalone="no"?>
<svg
   id="Capa_1"
   data-name="Capa 1"
   viewBox="0 0 908.45028 700.00002"
   width="908.45032"
   height="700"
   version="1.1"
   sodipodi:docname="Logo Joma - actuel.svg"
   inkscape:version="1.1.1 (c3084ef, 2021-09-22)"
   xmlns:inkscape="http://www.inkscape.org/namespaces/inkscape"
   xmlns:sodipodi="http://sodipodi.sourceforge.net/DTD/sodipodi-0.dtd"
   xmlns="http://www.w3.org/2000/svg"
   xmlns:svg="http://www.w3.org/2000/svg">
  <sodipodi:namedview
     id="namedview839"
     pagecolor="#ffffff"
     bordercolor="#666666"
     borderopacity="1.0"
     inkscape:pageshadow="2"
     inkscape:pageopacity="0.0"
     inkscape:pagecheckerboard="0"
     showgrid="false"
     inkscape:zoom="0.08866365"
     inkscape:cx="3406.1309"
     inkscape:cy="834.61486"
     inkscape:window-width="1920"
     inkscape:window-height="1080"
     inkscape:window-x="0"
     inkscape:window-y="0"
     inkscape:window-maximized="0"
     inkscape:current-layer="Capa_1" />
  <defs
     id="defs826">
    <style
       id="style824">.cls-1{isolation:isolate;}.cls-2{fill:#0700cf;}</style>
  </defs>
  <g
     class="cls-1"
     id="g836"
     style="fill:#000000"
     transform="matrix(0.1332307,0,0,0.1332307,20.001112,0)">
    <path
       class="cls-2"
       d="m 293.69,1.79 v 241.76 c 157.59,0 245.31,14.32 245.31,179.08 v 890 c 0,59.1 -23.28,141.47 -120,141.47 -59.1,0 -91.33,-32.23 -107.45,-69.84 v 0 c 59.09,-35.81 100.28,-102.07 100.28,-177.29 0,-114.61 -93.12,-205.94 -205.94,-205.94 -111,0 -202.36,89.54 -205.94,200.57 v 9 c 1.79,116.4 51.93,454.86 487.1,454.86 442.32,0 496.05,-291.9 496.05,-512.17 V 397.56 c 0,-94.92 73.42,-154 225.64,-154 V 1.79 Z"
       fill="#0700CF"
       id="path828"
       style="fill:#000000" />
    <path
       class="cls-2"
       d="m 3468.77,1027.92 c 0,96.7 -14.33,141.47 -136.1,141.47 v 236.38 h 745 v -236.38 c -155.8,0 -159.38,-116.4 -159.38,-191.62 0,0 -1.79,-308 -1.79,-431.58 0,-89.54 78.79,-256.08 238.17,-256.08 171.92,0 225.64,152.22 225.64,240 v 496 c 0,96.71 -62.68,141.48 -184.45,141.48 V 1404 h 793.32 v -234.61 c -188,0 -205.94,-116.4 -205.94,-191.62 V 435.16 c 0,-82.37 8.95,-132.52 -32.23,-216.68 0,0 -87.75,-209.53 -426.21,-209.53 -315.18,0 -417.26,209.53 -417.26,209.53 0,0 -87.78,-209.48 -428.03,-209.48 -315.18,0 -399.35,177.29 -399.35,177.29 V 1.79 h -633.94 v 241.76 c 157.59,0 225.64,41.19 225.64,177.29 v 587.38 c 0,94.91 -73.42,154 -225.64,154 V 1404 h 798.7 v -234.61 c -93.12,0 -161.17,-44.77 -161.17,-161.17 V 524.7 c 0,-130.73 60.88,-240 184.45,-240 127.14,0 200.57,112.82 200.57,247.13 z"
       fill="#0700CF"
       id="path830"
       style="fill:#000000" />
    <path
       class="cls-2"
       d="m 1823,0 c -392.19,0 -710.95,318.76 -710.95,711 0,392.24 318.76,710.94 711,710.94 C 2215.29,1421.94 2534,1103.13 2534,711 2532.18,318.76 2215.21,0 1823,0 m 19.7,1180.13 C 1647.53,1180.13 1549,968.82 1549,711 c 0,-259.67 94.91,-469.19 293.69,-469.19 191.61,0 293.69,209.52 293.69,469.19 0,259.67 -100.29,469.18 -293.69,469.18"
       fill="#0700CF"
       id="path832"
       style="fill:#000000" />
    <path
       class="cls-2"
       d="m 6350.15,877.49 v 186.24 c 0,60.89 -17.9,105.66 -71.63,105.66 -53.73,0 -60.88,-55.52 -60.88,-102.08 V 580.22 c 0,-191.62 69.84,-569.48 -621.41,-569.48 -343.83,0 -530.07,159.39 -530.07,379.65 0,114.61 93.12,209.53 209.52,209.53 114.61,0 209.52,-93.13 209.52,-209.53 a 207.06,207.06 0 0 0 -60.89,-146.84 c 0,0 343.84,-78.8 386.82,141.47 32.23,168.34 -68.05,197 -164.76,218.48 -96.71,21.48 -578.37,48.35 -621.37,350.99 -41.19,281.16 120,460.24 404.72,460.24 286.52,0 392.18,-166.55 392.18,-166.55 0,0 93.12,166.55 340.25,166.55 247.13,0 345.62,-166.55 345.62,-291.9 V 877.49 Z m -549.77,46.56 c 0,118.19 -69.84,232.8 -207.73,232.8 -137.89,0 -223.85,-136.1 -130.73,-254.29 93.12,-120 338.46,-148.64 338.46,-148.64 z"
       fill="#0700CF"
       id="path834"
       style="fill:#000000" />
  </g>
  <path
     d="m 339.77127,398.01723 c 67.96189,-51.39722 101.94239,-77.09672 101.94239,-77.09672 230.82729,-1.2788 346.24142,-1.91844 346.24142,-1.91844 80.32924,57.41203 120.49522,86.11715 120.49522,86.11715 -201.77983,25.37608 -248.46091,18.3828 -422.53991,164.27208 -49.31626,42.47465 -73.97371,63.71175 -73.97371,63.71175 -45.75224,37.33821 -82.48039,57.83965 -110.1844,61.50434 C 197.46585,718.57691 59.400053,659.97492 9.3126699,571.65942 7.7516642,568.90612 6.4466306,566.19043 5.2197783,563.48474 -10.091775,529.72425 9.1019445,508.20947 52.051228,503.08477 c 54.757142,-5.71174 104.783292,-5.64743 150.076602,0.1948 30.90053,4.10772 47.61813,15.68617 50.15506,34.73531 1.99388,12.32813 -2.26633,24.09821 -12.77966,35.31063 -8.43261,7.53775 -17.85623,15.27755 -28.27131,23.21983 7.83655,6.11312 17.74471,9.69626 29.72491,10.74765 39.15166,6.1779 187.47939,-138.73471 217.41957,-167.82257 2.83495,-4.37863 2.75496,-7.80051 -0.24227,-10.26749 -13.43149,-4.38135 -30.10106,-8.97057 -50.00833,-13.7691 -23.64953,-5.82051 -46.43515,-11.62602 -68.35592,-17.41435 z"
     id="path1494"
     style="fill:#000000;stroke-width:4.5504" />
</svg>
