<?xml version="1.0" encoding="UTF-8"?>
<svg id="Livello_1" xmlns="http://www.w3.org/2000/svg" version="1.1" viewBox="0 0 1047.3 363.13">
  <!-- Generator: Adobe Illustrator 29.1.0, SVG Export Plug-In . SVG Version: 2.1.0 Build 142)  -->
  <g>
    <path d="M928.42,131.45h-49.18v106.93h27.49s0-68.74,0-68.74h.01c0-9.02,8.17-16.33,18.26-16.33s18.26,7.31,18.26,16.33v68.74h27.64v-68.77c0-21.08-19.02-38.16-42.48-38.16Z"/>
    <path d="M746.83,131.41c-22.73,0-41.16,17.26-41.16,38.56v68.41h27.49l.03-64.84c0-7.42,2.93-11.69,7.13-13.48,2.39-1.06,5.27-1.52,8.97-1.79,3.97-.37,6.75-.5,9.99-3.74.41-.41,19.96-23.12,19.96-23.12h-32.41Z"/>
    <path d="M436.28,131.45c-12.46,0-23.75,4.05-32.01,10.6-8.26-6.55-19.55-10.6-32.01-10.6h-45.83v106.93h27.64v-67.91c0-9.02,8.1-16.33,18.19-16.33s18.19,7.31,18.19,16.33v67.91h27.64v-67.91c0-9.02,8.1-16.33,18.19-16.33s18.19,7.31,18.19,16.33v67.91h27.64v-69.73c0-20.55-20.52-37.21-45.83-37.21Z"/>
    <path d="M556.68,133.71c-4.51-1.6-9.7-1.91-17.65-2.25l-40.5-.05s17.17,19.91,17.57,20.34c3.23,3.24,6.02,3.37,10,3.74,2.67.19,7.92.12,10.59.15,3.37.03,4.55,0,7.88.59,6.45,1.14,11.89,7.37,12.16,13.7h-28.49c-18.89,0-35.56,15.34-35.56,34.23s16.66,34.23,35.56,34.23h45.44c5.5,0,9.6,0,9.6,0v-68.61c0-16.48-11.05-30.55-26.59-36.06ZM515.99,204.03c0-6.94,5.63-12.61,12.57-12.61h28.22v25.22h-28.22c-6.94,0-12.57-5.67-12.57-12.61Z"/>
    <path d="M817.78,130.02c-30.32,0-52.2,24.58-52.2,54.91s21.88,54.91,52.2,54.91,52.2-24.58,52.2-54.91-21.88-54.91-52.2-54.91ZM817.79,216.48c-17.43,0-25.65-14.13-25.65-31.55s8.22-31.55,25.65-31.55,25.76,14.13,25.76,31.55-8.33,31.55-25.76,31.55Z"/>
    <path d="M669.44,199.68c-3.55,10-11.28,16.79-23.37,16.79-17.43,0-25.63-14.1-25.63-31.53s8.2-31.57,25.63-31.57c11.75,0,19.4,6.45,23.07,16.02h27.13c-6.07-22.77-25.29-39.35-50.2-39.35-30.29,0-52.21,24.57-52.21,54.9s21.92,54.9,52.21,54.9c25.21,0,44.6-17,50.41-40.16h-27.04Z"/>
  </g>
  <g>
    <path d="M184.64,153.73c-5.18,0-9.9-1.98-13.44-5.22l-94.79-81.44,108.3,247.87,108.09-247.85-94.8,81.49c-3.53,3.2-8.22,5.16-13.36,5.16Z"/>
    <path d="M176.9,118.6c2.08,1.83,4.82,2.95,7.81,2.95,3.34,0,6.37-1.39,8.51-3.63l32.35-27.85c1.39-1.29,2.26-3.14,2.26-5.19,0-2.16-.97-4.1-2.5-5.4l-32.49-28.03c-2.12-2.02-4.98-3.25-8.14-3.25-2.89,0-5.54,1.04-7.59,2.76l-33.15,28.62c-1.46,1.3-2.39,3.2-2.39,5.3s.91,3.98,2.35,5.27l32.97,28.45Z"/>
  </g>
</svg>